<svg xmlns="http://www.w3.org/2000/svg" width="17.46" height="20" viewBox="0 0 17.46 20"><g transform="translate(-0.5)"><path d="M17.876,241.283a.586.586,0,0,0-.5-.283,4.948,4.948,0,0,0-4.217,2.346H6.209a2.909,2.909,0,0,0-2.072.859L.672,247.674a.587.587,0,0,0,0,.83c1.423,1.424,2.916,2.908,2.931,2.923a.586.586,0,0,0,.826,0l2.222-2.214h4.909a4.088,4.088,0,0,0,3.633-2.2c.018-.034,1.793-3.424,2.7-5.152A.587.587,0,0,0,17.876,241.283Zm-3.721,5.184a2.92,2.92,0,0,1-2.595,1.571H6.41a.585.585,0,0,0-.413.171l-1.981,1.974c-.467-.464-1.27-1.264-2.1-2.095l3.051-3.054a1.745,1.745,0,0,1,1.243-.515h6.32l-.45.859a.584.584,0,0,1-.519.314H7.582a.587.587,0,0,0,0,1.173h3.979a1.753,1.753,0,0,0,1.557-.943l.9-1.728a3.782,3.782,0,0,1,2.306-1.876C15.393,244.1,14.17,246.439,14.155,246.467Zm0,0" transform="translate(0 -231.597)"/><path d="M122.372,10.6h7.038A.587.587,0,0,0,130,10.01V2.933a.587.587,0,0,0-.587-.587h-1.76V1.76a1.76,1.76,0,1,0-3.519,0v.587h-1.76a.586.586,0,0,0-.587.587V10.01A.586.586,0,0,0,122.372,10.6ZM125.3,1.76a.587.587,0,1,1,1.173,0v.587H125.3Zm-2.346,1.76h1.173v.587a.587.587,0,1,0,1.173,0V3.519h1.173v.587a.587.587,0,0,0,1.173,0V3.519h1.173v5.9h-5.865Zm0,0" transform="translate(-116.551)"/></g></svg>