<svg xmlns="http://www.w3.org/2000/svg" width="20" height="20" viewBox="0 0 20 20"><path d="M236.251,363.46a.792.792,0,1,1-.792-.792A.792.792,0,0,1,236.251,363.46Zm0,0" transform="translate(-225.46 -348.437)"/><path d="M10,20A10,10,0,1,1,20,10,10.011,10.011,0,0,1,10,20ZM10,1.25A8.75,8.75,0,1,0,18.75,10,8.76,8.76,0,0,0,10,1.25Zm0,0"/><path d="M168.7,93.843a.594.594,0,0,1-.594-.594v-.8a1.785,1.785,0,0,1,1.189-1.68,2.456,2.456,0,0,0,1.582-2.073,2.177,2.177,0,1,0-4.354,0,.594.594,0,0,1-1.187,0,3.365,3.365,0,1,1,6.729,0,3.643,3.643,0,0,1-2.374,3.193.594.594,0,0,0-.4.56v.8A.594.594,0,0,1,168.7,93.843Zm0,0" transform="translate(-158.697 -81.864)"/></svg>