<svg xmlns="http://www.w3.org/2000/svg" width="20" height="19.852" viewBox="0 0 20 19.852"><g transform="translate(-0.5 0.001)"><path d="M337.733,155.148a.393.393,0,1,0,.394.393A.393.393,0,0,0,337.733,155.148Zm0,0" transform="translate(-323.686 -149.137)"/><path d="M156.038,336.84a.394.394,0,1,0,.394.394A.393.393,0,0,0,156.038,336.84Zm0,0" transform="translate(-149.086 -323.788)"/><path d="M20.015,2.384a.392.392,0,0,0-.366.1L18.03,4.109h-.776L16.4,3.23V2.449l1.6-1.608A.387.387,0,0,0,17.841.2,3.923,3.923,0,0,0,16.594,0a3.872,3.872,0,0,0-3.171,1.616,3.809,3.809,0,0,0-.6,3.266L9.942,7.737,5.148,2.968V2.032a.387.387,0,0,0-.19-.332L2.2.054A.393.393,0,0,0,1.72.113l-1.1,1.1a.386.386,0,0,0-.059.474L2.213,4.424a.391.391,0,0,0,.335.188h.943L8.285,9.382,5.419,12.227a3.886,3.886,0,0,0-3.292.6A3.859,3.859,0,0,0,.7,17.212a.392.392,0,0,0,.647.149l1.619-1.62h.781l.889.883V17.4L3.008,19.006a.387.387,0,0,0,.15.643,3.922,3.922,0,0,0,1.247.2,3.871,3.871,0,0,0,3.171-1.615,3.811,3.811,0,0,0,.6-3.267l2.3-2.285.527.569-.242.24a.386.386,0,0,0,0,.548.393.393,0,0,0,.553,0l.219-.217,4.948,5.335.011.012a2.356,2.356,0,0,0,3.315,0,2.318,2.318,0,0,0,0-3.29l-.012-.012-5.383-4.9.217-.215a.386.386,0,0,0,0-.548.393.393,0,0,0-.553,0l-.24.239-.574-.523,2.313-2.3a3.942,3.942,0,0,0,1.012.131A3.9,3.9,0,0,0,20.5,3.876a3.841,3.841,0,0,0-.2-1.238A.389.389,0,0,0,20.015,2.384ZM3.929,3.951a.388.388,0,0,0-.276-.11H2.769l-1.386-2.3L2.056.875,4.367,2.252v.877a.386.386,0,0,0,.114.274L9.39,8.286l-.553.548Zm9.936,7.563,5.4,4.918a1.545,1.545,0,0,1-.006,2.188,1.571,1.571,0,0,1-2.2.005l-4.964-5.352Zm-.576-.525L11.563,12.7l-.527-.569,1.68-1.668Zm3.3-4.012a3.143,3.143,0,0,1-1-.162.393.393,0,0,0-.4.093L7.462,14.585a.386.386,0,0,0-.094.4,3.051,3.051,0,0,1-.426,2.8,3.1,3.1,0,0,1-2.536,1.292,3.224,3.224,0,0,1-.341-.018l1.241-1.222a.386.386,0,0,0,.116-.275v-1.1a.386.386,0,0,0-.114-.274l-1.118-1.11a.392.392,0,0,0-.276-.114H2.808a.393.393,0,0,0-.277.115L1.3,16.312a3.114,3.114,0,0,1-.018-.338,3.059,3.059,0,0,1,1.3-2.517A3.112,3.112,0,0,1,5.4,13.033a.392.392,0,0,0,.4-.093l7.732-7.675a.386.386,0,0,0,.094-.4,3.05,3.05,0,0,1,.425-2.8A3.1,3.1,0,0,1,16.594.775a3.216,3.216,0,0,1,.351.019L15.729,2.018a.386.386,0,0,0-.112.272v1.1a.386.386,0,0,0,.11.269l1.079,1.11a.392.392,0,0,0,.281.118h1.105a.392.392,0,0,0,.277-.115L19.7,3.538a3.1,3.1,0,0,1-3.107,3.44Zm0,0" transform="translate(0 0)"/><path d="M188.965,183.541l-4.925,4.925a.394.394,0,0,0,.557.557l4.925-4.925a.394.394,0,0,0-.557-.557Zm0,0" transform="translate(-176.281 -176.357)"/><path d="M348.942,349.28a.394.394,0,1,0,.556-.557l-3.547-3.536a.394.394,0,0,0-.556.557Zm0,0" transform="translate(-331.36 -331.79)"/></g></svg>