<svg xmlns="http://www.w3.org/2000/svg" width="20.003" height="13.046" viewBox="0 0 20.003 13.046"><g transform="translate(0 -85.333)"><g transform="translate(6.958 85.333)"><path d="M173.71,85.333a3.044,3.044,0,1,0,3.044,3.044A3.047,3.047,0,0,0,173.71,85.333Zm0,5.218a2.174,2.174,0,1,1,2.174-2.174A2.177,2.177,0,0,1,173.71,90.551Z" transform="translate(-170.666 -85.333)"/></g><g transform="translate(13.915 88.812)"><g transform="translate(0 0)"><path d="M343.508,170.667a2.174,2.174,0,1,0,2.174,2.174A2.177,2.177,0,0,0,343.508,170.667Zm0,3.479a1.3,1.3,0,1,1,1.3-1.3A1.306,1.306,0,0,1,343.508,174.146Z" transform="translate(-341.334 -170.667)"/></g></g><g transform="translate(1.801 88.812)"><g transform="translate(0 0)"><path d="M46.356,170.667a2.174,2.174,0,1,0,2.174,2.174A2.177,2.177,0,0,0,46.356,170.667Zm0,3.479a1.3,1.3,0,1,1,1.3-1.3A1.306,1.306,0,0,1,46.356,174.146Z" transform="translate(-44.182 -170.667)"/></g></g><g transform="translate(4.349 92.291)"><g transform="translate(0 0)"><path d="M112.319,256a5.66,5.66,0,0,0-5.653,5.653.435.435,0,1,0,.87,0,4.783,4.783,0,0,1,9.567,0,.435.435,0,1,0,.87,0A5.66,5.66,0,0,0,112.319,256Z" transform="translate(-106.666 -256)"/></g></g><g transform="translate(13.853 94.03)"><path d="M342.049,298.667a3.914,3.914,0,0,0-2.027.565.435.435,0,0,0,.451.744,3.045,3.045,0,0,1,4.62,2.6.435.435,0,0,0,.87,0A3.919,3.919,0,0,0,342.049,298.667Z" transform="translate(-339.813 -298.667)"/></g><g transform="translate(0 94.03)"><path d="M5.94,299.231A3.915,3.915,0,0,0,0,302.581a.435.435,0,1,0,.87,0,3.045,3.045,0,0,1,4.619-2.606.435.435,0,1,0,.451-.744Z" transform="translate(0 -298.667)"/></g></g></svg>